<mxfile host="app.diagrams.net" modified="2024-02-03T11:46:58.513Z" agent="Mozilla/5.0 (Macintosh; Intel Mac OS X 10_15_7) AppleWebKit/605.1.15 (KHTML, like Gecko) Version/16.1 Safari/605.1.15" version="23.1.1" etag="nDWt5KFJHN-G7rrPBMJ4" type="github">
  <diagram name="Page-1" id="g6OOpXdOrillYNmz9Y5Y">
    <mxGraphModel>
      <root>
        <mxCell id="0" />
        <mxCell id="1" parent="0" />
      </root>
    </mxGraphModel>
  </diagram>
</mxfile>
